<svg width="142" height="66" viewBox="0 0 142 66" fill="none" xmlns="http://www.w3.org/2000/svg">
<path d="M2.87899 52.8786C2.87899 54.2143 3.27185 55.2357 4.05756 56.1C4.84328 56.9643 5.78613 57.3571 6.96471 57.3571C8.14328 57.3571 9.16471 56.9643 9.95042 56.1C10.8147 55.2357 11.2076 54.2143 11.2076 52.8786C11.2076 51.5429 10.8147 50.4429 9.95042 49.6571C9.08613 48.8714 8.14328 48.4786 7.04328 48.4786C5.94328 48.4786 5.00042 48.8714 4.13614 49.6571C3.27185 50.4429 2.87899 51.5429 2.87899 52.8786ZM16.079 46.2786V48.5572H13.7218V58.2214C13.7218 59.5571 13.6433 60.5 13.4861 61.1286C13.329 61.7571 13.0147 62.3857 12.5433 63.0929C11.9933 63.7214 11.2861 64.2714 10.2647 64.7429C9.24328 65.2143 8.06471 65.45 6.80756 65.45C4.92185 65.45 3.19328 64.9 1.70042 63.7214L3.35042 61.8357C4.45042 62.7 5.70756 63.1714 7.04328 63.1714C7.75042 63.1714 8.45756 63.0143 9.08614 62.7786C9.71471 62.4643 10.1861 62.15 10.5004 61.7571C10.8147 61.3643 10.9718 60.9714 11.129 60.5786C11.2076 60.1857 11.2861 59.6357 11.2861 58.7714V57.5929C10.8933 58.0643 10.2647 58.6143 9.40042 59.0071C8.53613 59.4786 7.59328 59.7143 6.57185 59.7143C4.68613 59.7143 3.19328 59.0857 2.01471 57.75C0.836134 56.4929 0.286133 54.8429 0.286133 53.0357C0.286133 50.9929 0.914704 49.3429 2.25042 48.0857C3.50756 46.8286 5.00042 46.2 6.72899 46.2C8.45756 46.2 9.95042 46.9072 11.2861 48.2429V46.3572H16.079V46.2786Z" fill="white"/>
<path d="M19.2214 56.9643V42.8214H16.8643V40.5429H21.7357V56.9643H23.7785V59.2429H16.8643V56.9643H19.2214Z" fill="white"/>
<path d="M33.9145 54.3714C32.8145 53.5071 31.7145 53.1143 30.5359 53.1143C29.8288 53.1143 29.2002 53.35 28.7288 53.7429C28.2574 54.1357 28.0217 54.6857 28.0217 55.3143C28.0217 55.9429 28.2574 56.4143 28.6502 56.8072C29.0431 57.2 29.5931 57.4357 30.3788 57.4357C31.6359 57.4357 32.8145 56.8857 33.9145 55.8643V54.3714ZM38.6288 56.9643V59.2429H34.1502V57.6714C32.8931 58.85 31.5574 59.4786 29.9859 59.4786C28.8074 59.4786 27.7859 59.0857 26.9217 58.3C26.0574 57.5143 25.5859 56.5714 25.5859 55.3143C25.5859 54.1357 26.0574 53.1143 27.0002 52.3286C27.9431 51.5429 29.0431 51.15 30.3788 51.15C31.5574 51.15 32.7359 51.5429 33.9145 52.25V50.9929C33.9145 50.3643 33.8359 49.8143 33.7574 49.5C33.6002 49.1072 33.3645 48.7929 32.8931 48.5572C32.4217 48.2429 31.7931 48.1643 31.0859 48.1643C29.8288 48.1643 28.8859 48.6357 28.3359 49.6571L25.9002 49.0286C27.0002 46.9857 28.8859 45.9643 31.4788 45.9643C32.4217 45.9643 33.2859 46.1214 33.9931 46.3572C34.7002 46.5929 35.2502 46.9857 35.5645 47.3786C35.8788 47.7714 36.1145 48.2429 36.2717 48.7143C36.4288 49.1857 36.4288 49.9714 36.4288 50.9929V56.9643H38.6288Z" fill="white"/>
<path d="M41.6931 41.8C41.6931 41.4071 41.8502 41.0143 42.1645 40.7C42.4788 40.3857 42.7931 40.2286 43.2645 40.2286C43.6574 40.2286 44.0502 40.3857 44.3645 40.7C44.6788 41.0143 44.836 41.3286 44.836 41.8C44.836 42.1929 44.6788 42.5857 44.3645 42.9C44.0502 43.2143 43.736 43.3714 43.2645 43.3714C42.7931 43.3714 42.4788 43.2143 42.1645 42.9C41.8502 42.5857 41.6931 42.2714 41.6931 41.8ZM38.4717 64.8214V62.5429C38.8645 62.6214 39.336 62.6214 39.7288 62.6214C40.436 62.6214 40.9074 62.5429 41.2217 62.3072C41.536 62.0714 41.7717 61.8357 41.9288 61.4429C42.0074 61.05 42.086 59.7929 42.086 57.75V48.5572H40.0431V46.2786H44.6002V57.3572C44.6002 59.5571 44.5217 61.1286 44.3645 61.9929C44.2074 62.8572 43.8145 63.5643 43.1074 64.1143C42.4002 64.6643 41.3788 64.9786 39.9645 64.9786C39.4145 64.9786 38.9431 64.9 38.4717 64.8214Z" fill="white"/>
<path d="M62.2003 56.9643V59.2429H57.4074V57.75C55.9146 58.85 54.5003 59.4786 53.086 59.4786C52.2217 59.4786 51.5146 59.3214 50.9646 58.9286C50.4146 58.5357 50.0217 58.0643 49.8646 57.4357C49.7074 56.8071 49.5503 55.8643 49.5503 54.5286V48.5571H47.7432V46.2786H52.1432V54.2143C52.1432 55.1571 52.1432 55.7857 52.2217 56.1786C52.3003 56.4928 52.4574 56.8071 52.6932 56.9643C52.9289 57.2 53.2432 57.2786 53.636 57.2786C54.8146 57.2786 56.0717 56.7286 57.4074 55.55V48.5571H55.1289V46.2786H60.0003V56.9643H62.2003Z" fill="white"/>
<path d="M65.9719 56.9643V48.5571H63.8505V46.2786H68.5648V47.9286C70.1362 46.6714 71.6291 46.1214 73.0434 46.1214C74.5362 46.1214 75.5576 46.8286 76.1076 48.1643C77.8362 46.8286 79.4077 46.1214 80.8219 46.1214C81.6862 46.1214 82.3148 46.2786 82.8648 46.6714C83.4148 47.0643 83.8077 47.5357 83.9648 48.0857C84.1219 48.6357 84.2791 49.5 84.2791 50.6V57.0429H86.5577V59.3214H81.7648V50.9929C81.7648 50.2071 81.7648 49.7357 81.6862 49.4214C81.6077 49.1071 81.4505 48.8714 81.2148 48.6357C80.9791 48.4 80.5862 48.3214 80.1934 48.3214C79.0934 48.3214 77.8362 48.8714 76.5005 49.9714V56.9643H78.7005V59.2429H73.9076V50.7571C73.9076 49.8929 73.7505 49.2643 73.5148 48.95C73.2791 48.5571 72.8862 48.4 72.2576 48.4C71.3148 48.4 70.0577 48.95 68.5648 50.05V57.0429H70.8434V59.3214H63.6934V57.0429H65.9719V56.9643Z" fill="white"/>
<path d="M98.8144 51.5429C98.6572 50.6 98.1858 49.8143 97.4001 49.0286C96.6144 48.3214 95.6715 47.9286 94.5715 47.9286C93.5501 47.9286 92.6858 48.2429 91.9787 48.95C91.2715 49.5786 90.8001 50.4429 90.6429 51.5429H98.8144ZM101.407 53.35H90.4858C90.6429 54.5286 91.1144 55.55 91.9001 56.2572C92.6858 56.9643 93.7072 57.3572 94.8858 57.3572C96.6929 57.3572 98.1072 56.65 99.1287 55.2357L101.407 56.2572C100.7 57.3572 99.7572 58.2214 98.5787 58.7714C97.4001 59.3214 96.1429 59.6357 94.8858 59.6357C92.9215 59.6357 91.1929 59.0072 89.7787 57.75C88.3644 56.4929 87.6572 54.8429 87.6572 52.7214C87.6572 50.7572 88.3644 49.1072 89.7001 47.7714C91.0358 46.5143 92.6858 45.8072 94.4144 45.8072C96.143 45.8072 97.7144 46.4357 99.1287 47.6929C100.622 49.0286 101.329 50.9143 101.407 53.35Z" fill="white"/>
<path d="M106.357 52.7214C106.357 54.1357 106.75 55.2357 107.536 56.0214C108.321 56.8072 109.343 57.2 110.443 57.2C111.543 57.2 112.486 56.8072 113.35 56.0214C114.214 55.2357 114.607 54.0572 114.607 52.6429C114.607 51.2286 114.136 50.1286 113.35 49.4214C112.486 48.7143 111.543 48.3214 110.443 48.3214C109.264 48.3214 108.321 48.7143 107.536 49.5786C106.75 50.4429 106.357 51.4643 106.357 52.7214ZM119.557 56.9643V59.2429H114.686V57.3572C113.428 58.7714 111.857 59.4786 110.05 59.4786C108.321 59.4786 106.907 58.9286 105.571 57.75C104.314 56.5714 103.686 54.9214 103.686 52.8C103.686 50.6786 104.314 48.95 105.65 47.7714C106.986 46.5143 108.478 45.8857 110.128 45.8857C111.857 45.8857 113.428 46.5929 114.686 48.0071V42.9H112.171V40.6214H117.2V57.0429H119.557V56.9643Z" fill="white"/>
<path d="M122.15 41.8C122.15 41.4071 122.307 41.0143 122.621 40.7C122.936 40.3857 123.25 40.2286 123.721 40.2286C124.114 40.2286 124.507 40.3857 124.821 40.7C125.136 41.0143 125.293 41.3286 125.293 41.8C125.293 42.1929 125.136 42.5857 124.821 42.9C124.507 43.2143 124.193 43.3714 123.721 43.3714C123.329 43.3714 122.936 43.2143 122.621 42.9C122.307 42.5857 122.15 42.2714 122.15 41.8ZM122.543 56.9643V48.5572H120.5V46.2786H125.057V56.9643H127.1V59.2429H120.5V56.9643H122.543Z" fill="white"/>
<path d="M137.158 54.3714C136.058 53.5071 134.958 53.1143 133.779 53.1143C133.072 53.1143 132.443 53.35 131.972 53.7429C131.501 54.1357 131.265 54.6857 131.265 55.3143C131.265 55.9429 131.501 56.4143 131.893 56.8072C132.286 57.2 132.836 57.4357 133.622 57.4357C134.879 57.4357 136.058 56.8857 137.158 55.8643V54.3714ZM141.872 56.9643V59.2429H137.393V57.6714C136.136 58.85 134.801 59.4786 133.229 59.4786C132.051 59.4786 131.029 59.0857 130.165 58.3C129.301 57.5143 128.829 56.5714 128.829 55.3143C128.829 54.1357 129.301 53.1143 130.243 52.3286C131.186 51.5429 132.286 51.15 133.622 51.15C134.801 51.15 135.979 51.5429 137.158 52.25V50.9929C137.158 50.3643 137.079 49.8143 137.001 49.5C136.843 49.1072 136.608 48.7929 136.136 48.5572C135.665 48.2429 135.036 48.1643 134.329 48.1643C133.072 48.1643 132.129 48.6357 131.579 49.6571L129.143 49.0286C130.243 46.9857 132.129 45.9643 134.722 45.9643C135.665 45.9643 136.529 46.1214 137.236 46.3572C137.943 46.5929 138.493 46.9857 138.808 47.3786C139.122 47.7714 139.358 48.2429 139.515 48.7143C139.672 49.1857 139.672 49.9714 139.672 50.9929V56.9643H141.872Z" fill="white"/>
<path d="M64.7143 14.3786C64.7143 20.2715 59.9214 24.9857 54.1071 24.9857C48.2143 24.9857 43.5 20.1929 43.5 14.3786C43.5 8.56431 48.2929 3.77145 54.1071 3.77145C60 3.77145 64.7143 8.48574 64.7143 14.3786Z" fill="#00B5CC"/>
<path d="M98.5786 14.3786C98.5786 20.2715 93.7857 24.9857 87.9714 24.9857C82.0785 24.9857 77.3643 20.1929 77.3643 14.3786C77.3643 8.56431 82.1571 3.77145 87.9714 3.77145C93.7857 3.77145 98.5786 8.48574 98.5786 14.3786Z" fill="#EB539E"/>
<path d="M83.4932 14.6929C83.4932 21.7643 77.7575 27.5 70.686 27.5C63.6146 27.5 57.8789 21.7643 57.8789 14.6929C57.8789 7.62146 63.6146 1.88574 70.686 1.88574C77.7575 1.88574 83.4932 7.62146 83.4932 14.6929Z" fill="#00A4E4"/>
<path d="M62.9071 14.9286C62.9071 17.6 63.6929 19.8 65.2643 21.45C66.8357 23.1786 68.8 23.9643 71.2357 23.9643C73.5929 23.9643 75.6357 23.1 77.3643 21.3714C79.0929 19.6429 79.9571 17.4429 79.9571 14.7714C79.9571 12.0214 79.0929 9.90002 77.3643 8.25002C75.6357 6.60002 73.6714 5.8143 71.3929 5.8143C69.1143 5.8143 67.15 6.60002 65.5 8.25002C63.7714 9.97859 62.9071 12.1786 62.9071 14.9286ZM84.9857 5.2643V6.12859V25.85C84.9857 28.5214 84.8286 30.4857 84.5929 31.7429C84.3571 33 83.65 34.3357 82.6286 35.6714C81.6071 37.0072 80.0357 38.1072 77.9143 39.05C75.7929 39.9929 73.5143 40.3857 70.9214 40.3857C66.9929 40.3857 63.5357 39.2072 60.4714 36.85L63.85 33.0786C66.1286 34.8857 68.6429 35.75 71.3143 35.75C72.8071 35.75 74.2214 35.4357 75.4786 34.8857C76.7357 34.3357 77.6786 33.6286 78.3071 32.7643C78.9357 31.9786 79.3286 31.1929 79.4857 30.4072C79.6429 29.7 79.7214 28.4429 79.7214 26.7143V24.3572C78.9357 25.3786 77.6 26.4 75.8714 27.3429C74.1429 28.2857 72.1786 28.7572 70.1357 28.7572C66.3643 28.7572 63.2214 27.4214 60.8643 24.8286C58.5071 22.2357 57.25 19.0143 57.25 15.1643C57.25 11 58.5857 7.62145 61.1786 5.02859C63.7714 2.43573 66.8357 1.17859 70.2929 1.17859C73.8286 1.17859 76.8929 2.59287 79.6429 5.34287L84.9857 5.2643Z" fill="white"/>
<path d="M62.9071 14.5357C62.9071 17.2071 63.6929 19.4071 65.2643 21.0571C66.8357 22.7857 68.8 23.5714 71.2357 23.5714C73.5929 23.5714 75.6357 22.7071 77.3643 20.9786C79.0929 19.25 79.9571 17.05 79.9571 14.3786C79.9571 11.6286 79.0929 9.50715 77.3643 7.85715C75.6357 6.20715 73.6714 5.42144 71.3929 5.42144C69.1143 5.42144 67.15 6.20715 65.5 7.85715C63.7714 9.58572 62.9071 11.7857 62.9071 14.5357ZM84.9857 4.87144V5.73572V25.4571C84.9857 28.1286 84.8286 30.0929 84.5929 31.35C84.3571 32.6071 83.65 33.9429 82.6286 35.2786C81.6071 36.6143 80.0357 37.7143 77.9143 38.6571C75.7929 39.6 73.5143 39.9929 70.9214 39.9929C66.9929 39.9929 63.5357 38.8143 60.4714 36.4571L63.85 32.6857C66.1286 34.4929 68.6429 35.3571 71.3143 35.3571C72.8071 35.3571 74.2214 35.0429 75.4786 34.4929C76.7357 33.9429 77.6786 33.2357 78.3071 32.3714C78.9357 31.5857 79.3286 30.8 79.4857 30.0143C79.6429 29.3071 79.7214 28.05 79.7214 26.3214V23.8857C78.9357 24.9071 77.6 25.9286 75.8714 26.8714C74.1429 27.8143 72.1786 28.2857 70.1357 28.2857C66.3643 28.2857 63.2214 26.95 60.8643 24.3571C58.5071 21.7643 57.25 18.5429 57.25 14.6929C57.25 10.5286 58.5857 7.15001 61.1786 4.55715C63.7714 1.9643 66.8357 0.707153 70.2929 0.707153C73.8286 0.707153 76.8929 2.12144 79.6429 4.87144H84.9857Z" fill="white"/>
</svg>
